# xmcd
#
# Track frame offsets:
#	150
#	22859
#	48057
#	65667
#	87397
#	105609
#	117827
#	142520
#	161021
#	185583
#	207825
#	224795
#	253611
#	282289
#	297068
#	306455
#	330752
#
# Disc length: 4590 seconds
#
# Revision: 0
# Processed by: cddbd v1.5PL3 Copyright (c) Steve Scherf et al.
# Submitted via: audiograbber 1.82.01
#
DISCID=f211ec11
DTITLE=[Yurik] - Жажда Скорости Xi [Спецвыпуск]
DYEAR=2004
DGENRE=Club
TTITLE0=2 Unlimited - Tribal Dance (2 Chains Club Mix)
TTITLE1=DJ Sputnik Feat. T.A.T.U. - All The Things She Said (Extended Mix)
TTITLE2=Special D - To The Beat (Club Mix)
TTITLE3=Brooklyn Bounce - X2X We Want More (Armani And Ghost Remix)
TTITLE4=Rhythm Gangsta - The Crowd Song
TTITLE5=Cisco Kid - Pizzaman
TTITLE6=CRW - I Feel Love
TTITLE7=Blu Cantrell feat. Sean Paul - Breathe (Ukg Mix 2 Vinyl)
TTITLE8=Pink - Trouble (Adam Freeland Remix)
TTITLE9=Sean Paul - Get Busy (Flight Jamaica Mix)
TTITLE10=DJ Renat - Tribal Injection
TTITLE11=Dallas Superstars - Helium
TTITLE12=Evanscence - Hello (Bren - Fs Bugged Out Vocal Mix)
TTITLE13=Happyman vs. Gala - Freed From Disire
TTITLE14=Alex Butcher - More And More
TTITLE15=Klubbheads - Bounce
TTITLE16=Panjabi MC - Mundian To Bach Ke (Aurelio Jam Remix)
EXTD=
EXTT0=
EXTT1=
EXTT2=
EXTT3=
EXTT4=
EXTT5=
EXTT6=
EXTT7=
EXTT8=
EXTT9=
EXTT10=
EXTT11=
EXTT12=
EXTT13=
EXTT14=
EXTT15=
EXTT16=
PLAYORDER=
